<?xml version="1.0" encoding="utf-8"?>
<!-- Generator: Adobe Illustrator 17.0.0, SVG Export Plug-In . SVG Version: 6.00 Build 0)  -->
<!DOCTYPE svg PUBLIC "-//W3C//DTD SVG 1.1//EN" "http://www.w3.org/Graphics/SVG/1.1/DTD/svg11.dtd">
<svg version="1.1" id="Layer_1" xmlns="http://www.w3.org/2000/svg" xmlns:xlink="http://www.w3.org/1999/xlink" x="0px" y="0px"
	 width="300.901px" height="55.408px" viewBox="0 0 300.901 55.408" enable-background="new 0 0 300.901 55.408"
	 xml:space="preserve">
<g>
	<path fill="#4CBFAC" d="M0.997,46.002c-0.322,0-0.431,0.054-0.431-0.754c0-10.237,0-23.167,0-35.074c0-0.647,0.054-0.7,0.431-0.7
		h23.652c0.431,0,0.378,0.108,0.431,0.539c0.162,2.317,0.216,5.226,0,7.327c-0.053,0.485,0,0.539-0.431,0.539l-14.386-0.108v7.327
		l12.769-0.162c0.485,0,0.701,0.216,0.701,0.647c0.107,2.263,0.161,4.687,0,7.273c-0.054,0.485-0.27,0.593-0.755,0.593
		l-12.715-0.108c0,0,0,7.974,0,11.907c0,0.593-0.053,0.754-0.484,0.754H0.997z"/>
	<path fill="#4CBFAC" d="M55.489,45.517c0,0.431,0,0.485-0.431,0.485c-3.394,0-19.611,0-22.789,0c-0.485,0-0.485,0.054-0.485-0.485
		c0-6.681,0-12.176,0-17.725c0-5.98,0-11.152,0-17.833c0-0.539,0-0.485,0.485-0.485c3.178,0,5.388,0,8.728,0
		c0.431,0,0.484,0.054,0.484,0.485c0,5.657,0,27.477,0,27.477l13.524-0.269c0.431,0,0.484,0.108,0.484,0.539
		C55.489,39.806,55.489,41.315,55.489,45.517z"/>
	<path fill="#4CBFAC" d="M72.103,27.792c0,6.896,0,13.523,0,17.725c0,0.431-0.053,0.485-0.539,0.485c-3.556,0-5.549,0-8.944,0
		c-0.484,0-0.484,0.054-0.484-0.485c0-6.681,0-12.176,0-17.725c0-5.98,0-11.152,0-17.833c0-0.539,0-0.485,0.484-0.485
		c3.395,0,5.388,0,8.944,0c0.485,0,0.539,0.054,0.539,0.485C72.103,14.161,72.103,20.842,72.103,27.792z"/>
	<path fill="#4CBFAC" d="M91.062,36.843c0,0,0,4.472,0,8.674c0,0.431-0.053,0.485-0.484,0.485c-3.395,0-5.55,0-8.728,0
		c-0.485,0-0.485,0.054-0.485-0.485c0-6.681,0-12.176,0-17.725c0-5.98,0-11.152,0-17.833c0-0.539,0.27-0.485,0.485-0.485h16.163
		c8.028,0,12.823,5.711,12.823,14.008c0,8.836-5.226,12.338-12.122,13.146C97.151,36.789,91.062,36.843,91.062,36.843z
		 M91.062,17.501v11.422l4.526-0.162c3.772-0.162,5.281-2.532,5.281-5.603c0-3.61-2.102-5.657-5.388-5.657H91.062z"/>
	<path fill="#4CBFAC" d="M197.862,9.474c8.296,0,12.715,5.711,12.715,12.338c0,4.957-1.724,8.459-5.011,10.021
		c1.401,2.209,4.471,7.65,7.597,12.715c0.647,1.078,0.484,1.455-0.109,1.455h-9.536c-0.431,0-0.647-0.108-1.131-1.078
		c-1.833-3.502-5.765-9.698-5.765-9.698l-6.196,0.108c0,0,0,5.98,0,10.183c0,0.431-0.053,0.485-0.431,0.485
		c-3.448,0-5.603,0-8.836,0c-0.431,0-0.431,0.054-0.431-0.485c0-6.681,0-12.176,0-17.725c0-5.98,0-11.152,0-17.833
		c0-0.539,0.27-0.485,0.431-0.485H197.862z M195.814,27.9c2.91-0.108,4.526-2.263,4.526-5.388c0-2.855-1.454-5.011-4.579-5.011
		h-5.334v10.56L195.814,27.9z"/>
	<path fill="#4CBFAC" d="M235.895,8.72c10.882,0,19.126,8.566,19.126,19.126s-8.244,19.072-19.126,19.072
		c-10.884,0-19.127-8.513-19.127-19.072S225.011,8.72,235.895,8.72z M226.844,27.846c0,5.549,3.233,9.859,9.051,9.859
		c5.71,0,9.051-4.31,9.051-9.859s-3.341-9.913-9.051-9.913C230.076,17.932,226.844,22.296,226.844,27.846z"/>
	<path fill="#4CBFAC" d="M279.347,8.72c10.882,0,19.126,8.566,19.126,19.126s-8.244,19.072-19.126,19.072
		c-10.884,0-19.127-8.513-19.127-19.072S268.463,8.72,279.347,8.72z M270.296,27.846c0,5.549,3.233,9.859,9.051,9.859
		c5.71,0,9.051-4.31,9.051-9.859s-3.341-9.913-9.051-9.913C273.529,17.932,270.296,22.296,270.296,27.846z"/>
	<path fill="#F58459" d="M166.3,0.408h-42.274c-3.017,0-6.125,1.733-6.125,4.75v22.615v1.478v21.137
		c0,3.017,3.108,5.021,6.125,5.021H166.3c3.017,0,4.601-2.004,4.601-5.021V29.251v-1.478V5.158
		C170.901,2.142,169.317,0.408,166.3,0.408z"/>
	<path opacity="0.8" fill="#E26943" d="M117.901,25.408v22.024c0,3.017,3.108,4.976,6.125,4.976H166.3
		c3.017,0,4.601-1.959,4.601-4.976V25.408H117.901z"/>
	<path fill="#FFFFFF" d="M138.267,40.391c-0.647,1.509-1.346,3.34-1.886,4.633c-0.161,0.431-0.269,0.593-0.969,0.593
		c-3.557,0-5.388,0-8.945,0c-0.431,0-0.484-0.216-0.269-0.754c5.603-11.907,13.415-27.8,18.318-36.959
		c0.053-0.162,1.24-0.108,1.293,0c5.172,10.075,12.499,25.053,18.426,36.959c0.323,0.7,0.27,0.754-0.216,0.754
		c-2.586,0-5.926,0-10.074,0c-0.27,0-0.485-0.054-0.647-0.431c-0.647-1.455-1.455-3.448-1.994-4.795H138.267z M148.449,33.387
		l-3.825-8.189l-3.664,8.189H148.449z"/>
	<path opacity="0.1" fill="#F58459" d="M117.901,25.408v22.024c0,3.017,3.108,4.976,6.125,4.976H166.3
		c3.017,0,4.601-1.959,4.601-4.976V25.408H117.901z"/>
</g>
</svg>
