<?xml version="1.0" encoding="utf-8"?>
<!-- Generator: Adobe Illustrator 17.0.0, SVG Export Plug-In . SVG Version: 6.00 Build 0)  -->
<!DOCTYPE svg PUBLIC "-//W3C//DTD SVG 1.1//EN" "http://www.w3.org/Graphics/SVG/1.1/DTD/svg11.dtd">
<svg version="1.1" id="Layer_1" xmlns="http://www.w3.org/2000/svg" xmlns:xlink="http://www.w3.org/1999/xlink" x="0px" y="0px"
	 width="304.485px" height="74.996px" viewBox="0 0 304.485 74.996" enable-background="new 0 0 304.485 74.996"
	 xml:space="preserve">
<g>
	<g>
		<path fill="#FFFFFF" d="M288.683,16.884h-3.328c-0.485,0-0.661,0.337-0.661,0.608c0,0.27,0.175,0.608,0.661,0.608h0.848v3.594
			c0,0.716,0.566,0.878,0.809,0.878c0.243,0,0.809-0.162,0.809-0.878V18.1h0.862c0.485,0,0.647-0.338,0.647-0.608
			C289.329,17.222,289.168,16.884,288.683,16.884z M295.784,16.803c-0.7,0-1.159,0.325-1.442,1.041l-0.876,2.256l-0.875-2.256
			c-0.283-0.715-0.741-1.041-1.442-1.041c-0.458,0-1.118,0.244-1.118,1.215v3.676c0,0.716,0.565,0.878,0.807,0.878
			c0.243,0,0.809-0.162,0.809-0.878v-2.513h0.028l0.983,2.674c0.176,0.473,0.431,0.716,0.809,0.716s0.634-0.243,0.81-0.716
			l0.983-2.674h0.027v2.513c0,0.716,0.566,0.878,0.809,0.878c0.242,0,0.809-0.162,0.809-0.878v-3.676
			C296.902,17.047,296.242,16.803,295.784,16.803z M42.989,56.465H22.291V17.618c0-3.712-2.417-6.21-6.194-6.21
			c-3.777,0-6.195,2.498-6.195,6.21v42.026c0,5.529,2.87,7.27,7.252,7.27h25.835c3.551,0,6.421-1.816,6.421-5.225
			C49.411,58.281,46.54,56.465,42.989,56.465z M84.683,26.326c-4.306,0-5.514,2.574-5.514,5.529v18.25
			c0,5.527-4.532,8.708-8.385,8.708c-4.759,0-6.949-3.181-6.949-7.648v-19.31c0-2.954-1.209-5.529-5.515-5.529
			c-4.305,0-5.514,2.574-5.514,5.529v21.507c0,11.206,7.252,14.539,13.899,14.539c6.27,0,10.274-2.877,13.371-6.967h0.151v1.439
			c0,3.332,1.511,5.528,4.986,5.528c3.475,0,4.986-2.196,4.986-5.528V31.854C90.198,28.9,88.989,26.326,84.683,26.326z
			 M103.186,11.408c-3.324,0-5.514,1.892-5.514,5.527v45.436c0,3.635,2.191,5.528,5.514,5.528c3.323,0,5.514-1.893,5.514-5.528
			V16.935C108.7,13.3,106.51,11.408,103.186,11.408z M122.297,11.408c-3.323,0-5.515,1.892-5.515,5.527v45.436
			c0,3.635,2.192,5.528,5.515,5.528c3.323,0,5.514-1.893,5.514-5.528V16.935C127.811,13.3,125.621,11.408,122.297,11.408z
			 M171.926,37.685c0-7.952-7.327-11.359-17.904-11.359c-11.331,0-17.524,5.604-17.524,9.995c0,2.273,1.887,4.241,4.683,4.241
			c4.381,0,4.607-6.058,12.766-6.058c3.703,0,6.949,1.364,6.949,4.545c0,3.18-2.114,3.785-4.758,4.089l-6.724,0.758
			c-8.46,0.983-15.409,3.559-15.409,12.721c0,6.967,6.195,11.283,12.464,11.283c5.816,0,10.802-1.666,15.109-6.437
			c0.15,3.407,1.737,6.437,6.494,6.437c2.646,0,4.988-1.741,4.988-4.241c0-1.742-1.133-2.802-1.133-7.422V37.685z M160.896,52.603
			c0,4.09-3.701,8.027-9.744,8.027c-3.777,0-6.118-2.045-6.118-4.544c0-3.332,2.492-4.77,7.101-5.452l4.003-0.606
			c1.283-0.228,3.549-0.606,4.758-1.742V52.603z M201.231,26.326c-4.911,0-8.687,2.045-10.878,5.604h-0.152V16.935
			c0-3.635-2.19-5.527-5.514-5.527c-3.323,0-5.513,1.892-5.513,5.527v45.739c0,3.407,1.585,5.225,4.985,5.225
			c3.248,0,4.985-1.818,4.985-5.225v-1.742h0.152c1.814,4.695,6.271,6.967,11.631,6.967c9.218,0,17.301-6.74,17.301-21.052
			C218.227,36.246,212.863,26.326,201.231,26.326z M198.435,59.266c-6.421,0-8.839-5.755-8.839-12.04
			c0-5.68,2.115-12.344,8.839-12.268c7.025,0,8.762,7.119,8.762,12.268C207.197,53.738,204.326,59.114,198.435,59.266z
			 M242.171,26.326c-13.296,0-20.398,9.088-20.398,20.75c0,11.056,5.364,20.824,20.398,20.824c15.031,0,20.394-9.768,20.394-20.824
			C262.565,35.413,255.464,26.326,242.171,26.326z M242.171,59.72c-6.574,0-9.369-5.906-9.369-12.645
			c0-7.194,2.946-12.571,9.369-12.571c6.419,0,9.365,5.377,9.365,12.571C251.536,53.814,248.741,59.72,242.171,59.72z
			 M284.242,34.58c3.249,0,4.986-0.984,4.986-3.635c0-2.651-1.737-3.635-4.986-3.635h-3.323v-6.739c0-3.636-2.192-5.528-5.515-5.528
			c-3.323,0-5.514,1.892-5.514,5.528v6.739h-1.889c-3.097,0-4.381,1.212-4.381,3.635c0,2.424,1.284,3.635,4.381,3.635h1.889v23.475
			c0,6.513,3.323,9.845,11.331,9.845c5.289,0,8.008-1.741,8.008-4.922c0-2.347-1.434-3.711-3.852-3.711h-1.585
			c-1.965,0-2.872-0.909-2.872-2.574V34.58H284.242z"/>
	</g>
</g>
</svg>
