<?xml version="1.0" encoding="utf-8"?>
<!-- Generator: Adobe Illustrator 17.0.0, SVG Export Plug-In . SVG Version: 6.00 Build 0)  -->
<!DOCTYPE svg PUBLIC "-//W3C//DTD SVG 1.1//EN" "http://www.w3.org/Graphics/SVG/1.1/DTD/svg11.dtd">
<svg version="1.1" xmlns="http://www.w3.org/2000/svg" xmlns:xlink="http://www.w3.org/1999/xlink" x="0px" y="0px" width="184px"
	 height="182px" viewBox="0 0 184 182" enable-background="new 0 0 184 182" xml:space="preserve">
<g id="background_circle">
	<path fill-rule="evenodd" clip-rule="evenodd" fill="#49BFAB" d="M92.674,2.904c47.773,0,86.5,38.728,86.5,86.5
		c0,47.773-38.727,86.5-86.5,86.5s-86.5-38.727-86.5-86.5C6.174,41.632,44.902,2.904,92.674,2.904z"/>
</g>
<g id="Layer_1" display="none">
	<rect x="7.167" y="46.332" display="inline" fill="#7EB861" width="128.312" height="85.591"/>
	<rect x="107.667" y="80.496" display="inline" fill="#7EB861" width="47.336" height="67.336"/>
	<rect x="163.788" y="117.694" display="inline" fill="#7EB861" width="15.87" height="31.52"/>
	<g display="inline">
		<g>
			<path fill="#FFFFFF" d="M155.863,76.354c-3.796-0.024-7.592-0.007-11.388-0.007h-5.821v-2.093c0-9.197,0.001-18.394,0-27.591
				c0-3.989-1.335-5.327-5.35-5.327c-41.757-0.003-83.513-0.003-125.27,0c-4.018,0-5.365,1.343-5.365,5.312
				c-0.001,27.472,0,54.945,0,82.417c0,4.472,1.223,5.701,5.696,5.701c14.888,0.003,29.775,0.001,44.663,0.001h2.003
				c0.085,0.357,0.15,0.475,0.134,0.582c-0.349,2.344-0.979,4.685-1,7.031c-0.031,3.537-1.56,5.418-5.036,5.822
				c-1.349,0.157-1.582,0.961-1.117,2.131h45.703c0.17-1.734,0.17-1.734-1.526-2.108c-4.726-1.043-4.707-1.045-5.158-5.883
				c-0.229-2.459-0.542-4.909-0.83-7.474h16.185c0,3.819-0.005,7.54,0.001,11.262c0.005,3.002,0.904,3.884,3.951,3.884
				c16.133,0.001,32.267,0.001,48.4,0.001c3.72,0,4.393-0.658,4.393-4.313c0.001-21.658,0-43.315,0-64.973
				c0-0.415,0.013-0.831-0.006-1.246C159.026,77.367,158.013,76.367,155.863,76.354z M71.136,129.837
				c-1.932-0.005-3.547-1.556-3.599-3.457c-0.052-1.924,1.658-3.695,3.58-3.708c1.939-0.013,3.605,1.709,3.564,3.683
				C74.641,128.301,73.073,129.842,71.136,129.837z M106.116,76.349c-2.783,0.002-3.728,0.951-3.729,3.76
				c-0.007,11.686-0.003,23.373-0.003,35.059v2.238H9.959V48.373h121.067v27.973h-1.961
				C121.416,76.347,113.766,76.342,106.116,76.349z M130.699,147.924c-1.241,0.052-2.028-0.606-2.061-1.911
				c-0.033-1.268,0.645-1.961,1.88-2.113c1.264,0.07,2.04,0.674,2.097,1.95C132.672,147.139,131.938,147.873,130.699,147.924z
				 M154.003,141.721h-45.517V82.496h45.517V141.721z M17.117,98.341h81.557v-8.213H17.117V98.341z M98.422,76.527H16.896v8.271
				h81.526V76.527z M45.807,55.241h-28.62v8.258h28.62V55.241z M46.093,111.395h23.653v-8.248H46.093V111.395z M17.199,111.13
				h23.586v-8.285H17.199V111.13z M74.984,111.587h23.68v-8.183h-23.68V111.587z M115.284,63.209h8.27v-8.228h-8.27V63.209z
				 M148.716,97.716h-36.139v4.841h36.139V97.716z M148.501,105.28h-35.914v4.412h35.914V105.28z M112.836,128.878h35.592v-4.449
				h-35.592V128.878z M112.829,136.388h35.606v-4.464h-35.606V136.388z M122.659,112.56h-10.099v8.851h10.099V112.56z
				 M135.478,112.557h-9.451v8.918h9.451V112.557z M139.197,121.475h9.451v-8.918h-9.451V121.475z M129.273,87.426h-16.426v4.31
				h16.426V87.426z M148.446,87.416h-8.607v4.141h8.607V87.416z M177.44,122.232h-11.034v2.849h11.034V122.232z M177.44,139.679
				h-11.034v2.849h11.034V139.679z M171.746,126.504h-5.339v3.205h5.339V126.504z M174.237,129.709h3.203v-3.205h-3.203V129.709z
				 M177.44,131.133h-11.034v6.765h11.034V131.133z M180.647,118.756c-0.009-2.148-0.866-2.989-3.033-2.999
				c-3.972-0.018-7.944-0.021-11.916,0.002c-2.047,0.012-2.905,0.844-2.91,2.936c-0.025,9.489-0.024,18.978-0.003,28.467
				c0.005,2.169,0.872,3.016,3.031,3.032c3.913,0.028,7.826,0.028,11.738,0.001c2.259-0.016,3.087-0.873,3.094-3.149
				c0.014-4.685,0.004-9.37,0.004-14.056C180.653,128.245,180.667,123.5,180.647,118.756z M171.746,148.759
				c-0.786,0-1.424-0.638-1.424-1.424c0-0.787,0.637-1.424,1.424-1.424c0.786,0,1.424,0.638,1.424,1.424
				C173.169,148.121,172.532,148.759,171.746,148.759z M178.508,144.664h-13.526v-24.213h13.526V144.664z"/>
		</g>
	</g>
</g>
<g id="Layer_2">
	<rect x="8.011" y="86.333" fill="#7EB861" width="54.323" height="54.14"/>
	<polygon fill="#7EB861" points="141.667,78.333 136.667,84 124.852,70.667 129.333,66.667 	"/>
	<g>
		<g>
			<path fill="#FFFFFF" d="M164.038,68.663c0.857-2.797,3.051-4.985,5.854-5.839c-2.804-0.854-4.998-3.043-5.854-5.839
				c-0.856,2.796-3.05,4.985-5.854,5.839C160.988,63.678,163.182,65.867,164.038,68.663z M129.479,63.832l-7.787,7.767
				l53.021,52.885l7.787-7.767L129.479,63.832z M135.557,80.792l-9.216-9.193l3.138-3.13l9.216,9.192L135.557,80.792z
				 M146.954,71.529c1.061-3.465,3.78-6.178,7.254-7.236c-3.474-1.059-6.193-3.77-7.254-7.235c-1.061,3.465-3.78,6.177-7.254,7.235
				C143.174,65.352,145.893,68.064,146.954,71.529z M124.62,83.854c-1.407,4.596-5.013,8.192-9.621,9.596
				c4.607,1.404,8.213,5,9.621,9.596c1.407-4.596,5.013-8.193,9.621-9.596C129.634,92.046,126.028,88.45,124.62,83.854z
				 M156.685,80.068c0.751-2.451,2.673-4.37,5.131-5.119c-2.458-0.748-4.381-2.667-5.131-5.118c-0.751,2.451-2.674,4.37-5.131,5.118
				C154.011,75.698,155.935,77.617,156.685,80.068z M95.073,134.557h-14.99v12.927H108v-28.039H95.073V134.557z M14.427,53.912
				h14.99V40.985H1.5V68.78h12.927V53.912z M67.158,40.985H42.342v12.927h24.815V40.985z M95.073,106.521H108V81.705H95.073V106.521
				z M80.082,53.912h14.99V68.78H108V40.985H80.082V53.912z M1.5,147.485h65.78v-65.78H1.5V147.485z M28.04,95.402l4.633,10.814
				l-6.825-2.919C25.783,100.811,26.233,97.897,28.04,95.402z M21.695,111.29c0,0-5.866-2.787-6.642-11.513l45.318,19.104
				c0,0-2.505,4.861-20.074,4.861c0,0-6.711,0.811-9.025,9.529H14.095C18.466,125.894,24.641,114.47,21.695,111.29z"/>
		</g>
	</g>
</g>
</svg>
