<?xml version="1.0" encoding="utf-8"?>
<!-- Generator: Adobe Illustrator 17.0.0, SVG Export Plug-In . SVG Version: 6.00 Build 0)  -->
<!DOCTYPE svg PUBLIC "-//W3C//DTD SVG 1.1//EN" "http://www.w3.org/Graphics/SVG/1.1/DTD/svg11.dtd">
<svg version="1.1" id="Layer_1" xmlns="http://www.w3.org/2000/svg" xmlns:xlink="http://www.w3.org/1999/xlink" x="0px" y="0px"
	 width="184px" height="182px" viewBox="0 0 184 182" enable-background="new 0 0 184 182" xml:space="preserve">
<path fill-rule="evenodd" clip-rule="evenodd" fill="#49BFAB" d="M92.674,2.904c47.773,0,86.5,38.728,86.5,86.5
	c0,47.773-38.727,86.5-86.5,86.5s-86.5-38.727-86.5-86.5C6.174,41.632,44.902,2.904,92.674,2.904z"/>
<rect x="7.167" y="46.332" fill="#7EB861" width="128.312" height="85.591"/>
<rect x="107.667" y="80.496" fill="#7EB861" width="47.336" height="67.336"/>
<rect x="163.788" y="117.694" fill="#7EB861" width="15.87" height="31.52"/>
<g>
	<g>
		<path fill="#FFFFFF" d="M155.863,76.354c-3.796-0.024-7.592-0.007-11.388-0.007h-5.821v-2.093c0-9.197,0.001-18.394,0-27.591
			c0-3.989-1.335-5.327-5.35-5.327c-41.757-0.003-83.513-0.003-125.27,0c-4.018,0-5.365,1.343-5.365,5.312
			c-0.001,27.472,0,54.945,0,82.417c0,4.472,1.223,5.701,5.696,5.701c14.888,0.003,29.775,0.001,44.663,0.001h2.003
			c0.085,0.357,0.15,0.475,0.134,0.582c-0.349,2.344-0.979,4.685-1,7.031c-0.031,3.537-1.56,5.418-5.036,5.822
			c-1.349,0.157-1.582,0.961-1.117,2.131h45.703c0.17-1.734,0.17-1.734-1.526-2.108c-4.726-1.043-4.707-1.045-5.158-5.883
			c-0.229-2.459-0.542-4.909-0.83-7.474h16.185c0,3.819-0.005,7.54,0.001,11.262c0.005,3.002,0.904,3.884,3.951,3.884
			c16.133,0.001,32.267,0.001,48.4,0.001c3.72,0,4.393-0.658,4.393-4.313c0.001-21.658,0-43.315,0-64.973
			c0-0.415,0.013-0.831-0.006-1.246C159.026,77.367,158.013,76.367,155.863,76.354z M71.136,129.837
			c-1.932-0.005-3.547-1.556-3.599-3.457c-0.052-1.924,1.658-3.695,3.58-3.708c1.939-0.013,3.605,1.709,3.564,3.682
			C74.641,128.301,73.073,129.842,71.136,129.837z M106.116,76.349c-2.783,0.002-3.728,0.951-3.729,3.76
			c-0.007,11.686-0.003,23.373-0.003,35.059v2.238H9.959V48.373h121.067v27.973h-1.961
			C121.416,76.347,113.766,76.342,106.116,76.349z M130.699,147.924c-1.241,0.052-2.028-0.606-2.061-1.911
			c-0.033-1.268,0.645-1.961,1.88-2.113c1.264,0.07,2.04,0.674,2.097,1.95C132.672,147.139,131.938,147.873,130.699,147.924z
			 M154.003,141.721h-45.517V82.496h45.517V141.721z M17.117,98.341h81.557v-8.213H17.117V98.341z M98.422,76.527H16.896v8.271
			h81.526V76.527z M45.807,55.241h-28.62v8.258h28.62V55.241z M46.093,111.395h23.653v-8.248H46.093V111.395z M17.199,111.13h23.586
			v-8.285H17.199V111.13z M74.984,111.587h23.68v-8.183h-23.68V111.587z M115.284,63.209h8.27v-8.228h-8.27V63.209z M148.716,97.716
			h-36.139v4.841h36.139V97.716z M148.501,105.28h-35.914v4.412h35.914V105.28z M112.836,128.878h35.592v-4.449h-35.592V128.878z
			 M112.829,136.388h35.606v-4.464h-35.606V136.388z M122.659,112.56h-10.099v8.851h10.099V112.56z M135.478,112.557h-9.451v8.918
			h9.451V112.557z M139.197,121.475h9.451v-8.918h-9.451V121.475z M129.273,87.426h-16.426v4.31h16.426V87.426z M148.446,87.416
			h-8.607v4.141h8.607V87.416z M177.44,122.232h-11.034v2.849h11.034V122.232z M177.44,139.679h-11.034v2.849h11.034V139.679z
			 M171.746,126.504h-5.339v3.205h5.339V126.504z M174.237,129.709h3.203v-3.205h-3.203V129.709z M177.44,131.133h-11.034v6.765
			h11.034V131.133z M180.647,118.756c-0.009-2.148-0.866-2.989-3.033-2.999c-3.972-0.018-7.944-0.021-11.916,0.002
			c-2.047,0.012-2.905,0.844-2.91,2.936c-0.025,9.489-0.024,18.978-0.003,28.467c0.005,2.169,0.872,3.016,3.031,3.032
			c3.913,0.028,7.826,0.028,11.738,0c2.259-0.016,3.087-0.873,3.094-3.149c0.014-4.685,0.004-9.37,0.004-14.056
			C180.653,128.245,180.667,123.5,180.647,118.756z M171.746,148.759c-0.786,0-1.424-0.638-1.424-1.424
			c0-0.787,0.637-1.424,1.424-1.424c0.786,0,1.424,0.638,1.424,1.424C173.169,148.121,172.532,148.759,171.746,148.759z
			 M178.508,144.664h-13.526v-24.213h13.526V144.664z"/>
	</g>
</g>
</svg>
